# xmcd
# 
# Track frame offsets:
#     155
#     13938
#     26880
#     39778
#     52618
#     78213
#     95663
#     109718
#     124108
#     136575
#     149363
#     163188
#     178748
# 
# Disc length: 2539
# 
# Revision: 0
# Processed by: cddbd v1.5.2PL0 Copyright (c) Steve Scherf et al.
# Submitted via: fre:ac v1.0.31
# 
DISCID=a209e90d
DTITLE=Tumbelweeds - Homework
DYEAR=1979
DGENRE=Country
TTITLE0=Idaho Home
TTITLE1=Don't Cry Blue
TTITLE2=Bitter They Are, Harder They Fall
TTITLE3=Homework
TTITLE4=Lefty Frizzel-Medley
TTITLE5=My Home Ain't In e Hall Of Fame
TTITLE6=Tapedeck In His Tracktor
TTITLE7=Crying Steelguitar
TTITLE8=Cajun Born
TTITLE9=Horse Step
TTITLE10=Heaven's Just A Sin Away
TTITLE11=He Made Me Loose My Blues
TTITLE12=The Orchid
EXTD=
EXTT0=
EXTT1=
EXTT2=
EXTT3=
EXTT4=
EXTT5=
EXTT6=
EXTT7=
EXTT8=
EXTT9=
EXTT10=
EXTT11=
EXTT12=
PLAYORDER=
